<svg xmlns="http://www.w3.org/2000/svg" viewBox="0 0 480 300" width="480" height="300" role="img" aria-label="Neon Rush cover art">
  <defs>
    <linearGradient id="bg" x1="0" y1="0" x2="1" y2="1">
      <stop offset="0" stop-color="hsl(18 48% 15%)"/>
      <stop offset="1" stop-color="hsl(64 52% 7%)"/>
    </linearGradient>
    <radialGradient id="glow" cx="0.14" cy="0.08" r="0.95">
      <stop offset="0" stop-color="hsl(18 92% 60%)" stop-opacity="0.85"/>
      <stop offset="0.6" stop-color="hsl(18 92% 60%)" stop-opacity="0"/>
    </radialGradient>
    <radialGradient id="glow2" cx="0.9" cy="0.95" r="0.8">
      <stop offset="0" stop-color="hsl(64 88% 50%)" stop-opacity="0.75"/>
      <stop offset="0.65" stop-color="hsl(64 88% 50%)" stop-opacity="0"/>
    </radialGradient>
    <pattern id="hatch" width="16" height="16" patternTransform="rotate(115)" patternUnits="userSpaceOnUse">
      <line x1="0" y1="0" x2="0" y2="16" stroke="#fff" stroke-opacity="0.055" stroke-width="1"/>
    </pattern>
  </defs>
  <rect width="480" height="300" fill="url(#bg)"/>
  <rect width="480" height="300" fill="url(#glow)"/>
  <rect width="480" height="300" fill="url(#glow2)"/>
  <rect width="480" height="300" fill="url(#hatch)"/>
  <circle cx="452" cy="-14" r="80" fill="none" stroke="#fff" stroke-opacity="0.16"/>
  <circle cx="24" cy="318" r="88" fill="none" stroke="#fff" stroke-opacity="0.12"/>
  <g stroke-linecap="round" stroke-linejoin="round">
    <rect x="96" y="62" width="46" height="34" rx="8" fill="hsl(0 0% 100%)" fill-opacity="0.09" stroke="#fff" stroke-opacity="0.13"/>
    <rect x="154" y="62" width="46" height="34" rx="8" fill="hsl(18 95% 68%)" fill-opacity="0.85"/>
    <rect x="212" y="62" width="46" height="34" rx="8" fill="hsl(0 0% 100%)" fill-opacity="0.09" stroke="#fff" stroke-opacity="0.13"/>
    <rect x="270" y="62" width="46" height="34" rx="8" fill="hsl(0 0% 100%)" fill-opacity="0.09" stroke="#fff" stroke-opacity="0.13"/>
    <rect x="328" y="62" width="46" height="34" rx="8" fill="hsl(0 0% 100%)" fill-opacity="0.09" stroke="#fff" stroke-opacity="0.13"/>
    <rect x="96" y="108" width="46" height="34" rx="8" fill="hsl(0 0% 100%)" fill-opacity="0.09" stroke="#fff" stroke-opacity="0.13"/>
    <rect x="154" y="108" width="46" height="34" rx="8" fill="hsl(0 0% 100%)" fill-opacity="0.09" stroke="#fff" stroke-opacity="0.13"/>
    <rect x="212" y="108" width="46" height="34" rx="8" fill="hsl(0 0% 100%)" fill-opacity="0.09" stroke="#fff" stroke-opacity="0.13"/>
    <rect x="270" y="108" width="46" height="34" rx="8" fill="hsl(42 96% 62%)" fill-opacity="0.9"/>
    <rect x="328" y="108" width="46" height="34" rx="8" fill="hsl(0 0% 100%)" fill-opacity="0.09" stroke="#fff" stroke-opacity="0.13"/>
    <rect x="96" y="154" width="46" height="34" rx="8" fill="hsl(18 95% 68%)" fill-opacity="0.85"/>
    <rect x="154" y="154" width="46" height="34" rx="8" fill="hsl(0 0% 100%)" fill-opacity="0.09" stroke="#fff" stroke-opacity="0.13"/>
    <rect x="212" y="154" width="46" height="34" rx="8" fill="hsl(0 0% 100%)" fill-opacity="0.09" stroke="#fff" stroke-opacity="0.13"/>
    <rect x="270" y="154" width="46" height="34" rx="8" fill="hsl(0 0% 100%)" fill-opacity="0.09" stroke="#fff" stroke-opacity="0.13"/>
    <rect x="328" y="154" width="46" height="34" rx="8" fill="hsl(0 0% 100%)" fill-opacity="0.09" stroke="#fff" stroke-opacity="0.13"/>
    <rect x="96" y="200" width="46" height="34" rx="8" fill="hsl(0 0% 100%)" fill-opacity="0.09" stroke="#fff" stroke-opacity="0.13"/>
    <rect x="154" y="200" width="46" height="34" rx="8" fill="hsl(0 0% 100%)" fill-opacity="0.09" stroke="#fff" stroke-opacity="0.13"/>
    <rect x="212" y="200" width="46" height="34" rx="8" fill="hsl(0 0% 100%)" fill-opacity="0.09" stroke="#fff" stroke-opacity="0.13"/>
    <rect x="270" y="200" width="46" height="34" rx="8" fill="hsl(0 0% 100%)" fill-opacity="0.09" stroke="#fff" stroke-opacity="0.13"/>
    <rect x="328" y="200" width="46" height="34" rx="8" fill="hsl(18 95% 68%)" fill-opacity="0.85"/>  </g>
</svg>
